<?xml version="1.0" encoding="UTF-8"?>
<!--Generator: Apple Native CoreSVG 326-->
<!DOCTYPE svg
PUBLIC "-//W3C//DTD SVG 1.1//EN"
       "http://www.w3.org/Graphics/SVG/1.1/DTD/svg11.dtd">
<svg version="1.1" xmlns="http://www.w3.org/2000/svg" xmlns:xlink="http://www.w3.org/1999/xlink" viewBox="0 0 22.9531 23.0505">
 <g>
  <rect height="23.0505" opacity="0" width="22.9531" x="0" y="0"/>
  <path d="M22.9531 3.77107L22.9531 19.1926C22.9531 21.679 21.6795 22.9637 19.1504 22.9637L3.80272 22.9637C1.28417 22.9637 0 21.6901 0 19.1926L0 3.77107C0 1.27362 1.28417 0 3.80272 0L19.1504 0C21.6795 0 22.9531 1.28468 22.9531 3.77107ZM5.69776 6.62288C5.69776 7.61303 6.34846 8.4523 7.24192 8.73562L7.24192 8.93017C7.24192 10.3345 8.07621 11.2918 9.67525 11.7034L12.8901 12.5512C13.8702 12.8165 14.3751 13.3261 14.3751 14.0493L14.3751 14.246C13.4779 14.5297 12.8283 15.3681 12.8283 16.3607C12.8283 17.5771 13.8211 18.5686 15.0469 18.5686C16.2633 18.5686 17.2562 17.5771 17.2562 16.3607C17.2562 15.3672 16.6055 14.5282 15.712 14.2451L15.712 14.0493C15.712 12.6449 14.8778 11.6877 13.2787 11.2802L10.0614 10.4282C9.0879 10.1687 8.57475 9.65332 8.57475 8.93017L8.57475 8.7363C9.47409 8.45347 10.1257 7.61372 10.1257 6.62288C10.1257 5.40233 9.13283 4.41088 7.90707 4.41088C6.69062 4.41088 5.69776 5.40233 5.69776 6.62288ZM8.87067 6.62288C8.87067 7.16136 8.45518 7.58789 7.90707 7.58789C7.37381 7.58789 6.94869 7.15884 6.94869 6.62288C6.94869 6.08029 7.3727 5.66591 7.90707 5.66591C8.45629 5.66591 8.87067 6.07778 8.87067 6.62288Z" fill="black" fill-opacity="0.85"/>
 </g>
</svg>
