<?xml version="1.0" encoding="UTF-8"?>
<!--Generator: Apple Native CoreSVG 326-->
<!DOCTYPE svg
PUBLIC "-//W3C//DTD SVG 1.1//EN"
       "http://www.w3.org/Graphics/SVG/1.1/DTD/svg11.dtd">
<svg version="1.1" xmlns="http://www.w3.org/2000/svg" xmlns:xlink="http://www.w3.org/1999/xlink" viewBox="0 0 22.9531 23.0505">
 <g>
  <rect height="23.0505" opacity="0" width="22.9531" x="0" y="0"/>
  <path d="M3.80272 22.9637L19.1504 22.9637C21.6795 22.9637 22.9531 21.679 22.9531 19.1926L22.9531 3.77107C22.9531 1.28468 21.6795 0 19.1504 0L3.80272 0C1.28417 0 0 1.27362 0 3.77107L0 19.1926C0 21.6901 1.28417 22.9637 3.80272 22.9637ZM3.83489 21.2234C2.47219 21.2234 1.72977 20.5021 1.72977 19.1077L1.72977 3.856C1.72977 2.45108 2.47219 1.74033 3.83489 1.74033L19.1182 1.74033C20.4588 1.74033 21.2234 2.45108 21.2234 3.856L21.2234 19.1077C21.2234 20.5021 20.4588 21.2234 19.1182 21.2234Z" fill="black" fill-opacity="0.85"/>
  <path d="M10.1257 6.62288C10.1257 7.61372 9.47409 8.45347 8.57475 8.7363L8.57475 8.93017C8.57475 9.65332 9.0879 10.1687 10.0614 10.4282L13.2787 11.2802C14.8778 11.6877 15.712 12.6449 15.712 14.0493L15.712 14.2451C16.6055 14.5282 17.2562 15.3672 17.2562 16.3607C17.2562 17.5771 16.2633 18.5686 15.0469 18.5686C13.8211 18.5686 12.8283 17.5771 12.8283 16.3607C12.8283 15.3681 13.4779 14.5297 14.3751 14.246L14.3751 14.0493C14.3751 13.3261 13.8702 12.8165 12.8901 12.5512L9.67525 11.7034C8.07621 11.2918 7.24192 10.3345 7.24192 8.93017L7.24192 8.73562C6.34846 8.4523 5.69776 7.61303 5.69776 6.62288C5.69776 5.40233 6.69062 4.41088 7.90707 4.41088C9.13283 4.41088 10.1257 5.40233 10.1257 6.62288ZM6.94869 6.62288C6.94869 7.15884 7.37381 7.58789 7.90707 7.58789C8.45518 7.58789 8.87067 7.16136 8.87067 6.62288C8.87067 6.07778 8.45629 5.66591 7.90707 5.66591C7.3727 5.66591 6.94869 6.08029 6.94869 6.62288Z" fill="black" fill-opacity="0.85"/>
 </g>
</svg>
